<svg xmlns="http://www.w3.org/2000/svg" viewBox="0 0 434.17 471.92"><defs><style>.\38 22de245-20b0-4be5-9698-08895ea11f8f{fill:#21296a;}.c1d2afd6-70b7-45a9-addd-d15f39baaf37{fill:#fff;}</style></defs><title>Asset 20404</title><g id="ab38d63b-a5c7-493f-82a4-e1510525818d" data-name="Layer 2"><g id="650597c6-f09f-491a-9b3e-7a5a8848e8e6" data-name="Layer 1"><path class="822de245-20b0-4be5-9698-08895ea11f8f" d="M134,302.47,7.4,429.11c-15.8,15.8-4.61,42.81,17.73,42.81H409c22.34,0,33.53-27,17.73-42.81l-124-124a25.08,25.08,0,0,0-17.24-7.34l-133.23-2.6A25.08,25.08,0,0,0,134,302.47Z"/><path class="822de245-20b0-4be5-9698-08895ea11f8f" d="M217.08,0A171.13,171.13,0,1,0,388.22,171.13,171.13,171.13,0,0,0,217.08,0Zm77.66,194.62a22.29,22.29,0,0,0-12.45,23.25,62.79,62.79,0,0,1,.5,8.14c0,41-39.52,73.23-83.52,61.94a63.71,63.71,0,0,1-44.5-41.35,62.91,62.91,0,0,1-3-28.39,23.93,23.93,0,0,0-13.45-24.08c-24.24-12.12-39.85-38.36-35-67.58,4.15-26.57,26.24-48.32,53.47-53a67.09,67.09,0,0,1,44.17,7.8,32.76,32.76,0,0,0,32.21,0,67,67,0,0,1,44.5-7.8c27.23,4.65,49.15,26.57,53.3,53.14C335.59,156.26,319.65,182.83,294.75,194.62Z"/><path class="822de245-20b0-4be5-9698-08895ea11f8f" d="M190.57,132.68c0,14.55-12.14,26.32-27,26.32s-27-11.77-27-26.32Z"/><path class="822de245-20b0-4be5-9698-08895ea11f8f" d="M297.7,132.68c0,14.55-12.14,26.32-27,26.32s-27-11.77-27-26.32Z"/><path class="822de245-20b0-4be5-9698-08895ea11f8f" d="M186.45,242.76c27-26.3,59.9-.81,61.32.32a4.82,4.82,0,0,0,6.65-.66,4.54,4.54,0,0,0-.67-6.5c-.27-.21-18.17-14.18-39.83-14.18-11,0-23,3.61-34.16,14.49a4.54,4.54,0,0,0,0,6.53A4.81,4.81,0,0,0,186.45,242.76Z"/><path class="822de245-20b0-4be5-9698-08895ea11f8f" d="M227,195.61a5,5,0,0,1,0-7.16,5.28,5.28,0,0,1,7.34,0,5,5,0,0,1,0,7.16A5.28,5.28,0,0,1,227,195.61Z"/><ellipse class="822de245-20b0-4be5-9698-08895ea11f8f" cx="208.79" cy="192.03" rx="5.19" ry="5.06"/><path class="c1d2afd6-70b7-45a9-addd-d15f39baaf37" d="M106.12,419.31v-11l29.45-63.48h11.26l1.7,3-27.62,59.42h31.81v-28.4h13.35v56.28H152.72V419.31Z"/><path class="c1d2afd6-70b7-45a9-addd-d15f39baaf37" d="M181.78,414.47v-49q0-20.68,20.68-20.68H221q20.68,0,20.68,20.68v49q0,20.68-20.68,20.68H202.46Q181.78,435.15,181.78,414.47Zm13.35,1.18q0,7.46,7.46,7.46h18.32q7.46,0,7.46-7.46V364.33q0-7.46-7.46-7.46H202.59q-7.46,0-7.46,7.46Z"/><path class="c1d2afd6-70b7-45a9-addd-d15f39baaf37" d="M257.43,419.31v-11l29.45-63.48h11.26l1.7,3-27.62,59.42H304v-28.4h13.35v56.28H304V419.31Z"/></g></g></svg>