<svg id="a4436a09-830d-4c29-a75a-439282bb635d" data-name="Layer 1" xmlns="http://www.w3.org/2000/svg" viewBox="0 0 591 591"><defs><style>.\30 c1c9341-7fef-4cfd-9987-4d365b495b7a{fill:#a6a9c3;}.e29d2f43-1638-49a7-bcdd-368ba12adeb7{fill:#21296a;}</style></defs><title>Artboard 1icon</title><path class="0c1c9341-7fef-4cfd-9987-4d365b495b7a" d="M162.41,485.39H45.22A21.46,21.46,0,0,1,64.78,470V272.85a21.44,21.44,0,0,1-19.45-15h117a21.44,21.44,0,0,1-19.45,15V470A21.46,21.46,0,0,1,162.41,485.39Z"/><path class="0c1c9341-7fef-4cfd-9987-4d365b495b7a" d="M354.11,485.39H236.91A21.48,21.48,0,0,1,256.48,470V272.9l-.1-.05a21.47,21.47,0,0,1-19.46-15H354a21.44,21.44,0,0,1-19.45,15V470A21.46,21.46,0,0,1,354.11,485.39Z"/><path class="0c1c9341-7fef-4cfd-9987-4d365b495b7a" d="M545.87,485.39H428.61A21.48,21.48,0,0,1,448.18,470V272.9l-.1-.05a21.47,21.47,0,0,1-19.46-15H545.7a21.44,21.44,0,0,1-19.45,15v197A21.45,21.45,0,0,1,545.87,485.39Z"/><path class="0c1c9341-7fef-4cfd-9987-4d365b495b7a" d="M540,141.12V157H47V143L291.89,14.48a7.61,7.61,0,0,1,7.15,0Z"/><g id="3cd24527-4f50-48a6-88a1-b3d95e68a689" data-name="surface1"><path class="e29d2f43-1638-49a7-bcdd-368ba12adeb7" d="M567.43,155.54,540,141.12,299,14.48a7.61,7.61,0,0,0-7.15,0L47,143,23.5,155.39a7.66,7.66,0,0,0,6.28,14,23.78,23.78,0,0,0-.36,3.37V195.9a23,23,0,0,0,14.93,21.46v34.13a21.46,21.46,0,0,0,20.43,21.36V470a21.45,21.45,0,0,0-20.43,21.36v34a23.25,23.25,0,0,0-14.93,21.66v22.69a7.67,7.67,0,0,0,7.67,7.66H553.94a7.66,7.66,0,0,0,7.66-7.66V547.06a23.23,23.23,0,0,0-14.91-21.66V491.17a21.49,21.49,0,0,0-20.44-21.36v-197a21.44,21.44,0,0,0,19.45-15,21.18,21.18,0,0,0,1-6.34V217.36A23,23,0,0,0,561.6,195.9v-23a22.38,22.38,0,0,0-.35-3.37,7.63,7.63,0,0,0,6.18-14ZM295.46,29.8l228.23,120H67.23ZM148,246v5.57a6.12,6.12,0,0,1-6.13,6.13H65.55a6.12,6.12,0,0,1-6-6.12V246ZM59.67,230.65V218.84h88.39v11.7Zm177.25,27.18a21.47,21.47,0,0,0,19.46,15l.1.05V470A21.45,21.45,0,0,0,236,491.37V524H163.28v-32.6A21.45,21.45,0,0,0,142.85,470V272.85a21.46,21.46,0,0,0,20.43-21.36V218.84h72.66v32.6A21.45,21.45,0,0,0,236.92,257.83ZM339.66,246v5.57a6.13,6.13,0,0,1-6.13,6.13H257.4a6.12,6.12,0,0,1-6.13-6.13V246Zm-88.29-15.32V218.84h88.39v11.7Zm177.25,27.18a21.47,21.47,0,0,0,19.46,15l.1.05V470a21.45,21.45,0,0,0-20.44,21.36V524H355v-32.6A21.49,21.49,0,0,0,334.55,470V272.85a21.44,21.44,0,0,0,19.45-15,21.18,21.18,0,0,0,1-6.34V218.84h72.65v32.6A21.14,21.14,0,0,0,428.62,257.83ZM443,512.27h88.49V524H443Zm-191.7,0h88.49V524H251.27Zm88.39-20.9v5.57H251.27v-5.57a6.12,6.12,0,0,1,6.13-6.13h76.13a5.94,5.94,0,0,1,1.35.15A6.13,6.13,0,0,1,339.66,491.37Zm-67.95-21.46V273h47.56V469.91ZM127.52,273.15V469.91H80V273Zm14.31,212.24a6.13,6.13,0,0,1,6.13,6.14v5.56H59.57v-5.56a6.13,6.13,0,0,1,6.13-6.14ZM148,512.27V524H59.57v-11.7Zm398.32,34.94v15.18H44.65v-15a7.93,7.93,0,0,1,7.92-7.92H538.36A7.93,7.93,0,0,1,546.28,547.21Zm-14.92-55.84v5.72H443v-5.56a6.13,6.13,0,0,1,6.13-6.14h76.28A6.13,6.13,0,0,1,531.36,491.37Zm-68-21.3V273H511V469.91ZM449.15,257.83A6.13,6.13,0,0,1,443,251.7V246h88.39l0,5.73a6.13,6.13,0,0,1-6.13,6.13Zm-6.08-27.18V218.84h88.39v11.7Zm103.21-34.59a7.67,7.67,0,0,1-7.67,7.66H52.31a7.66,7.66,0,0,1-7.66-7.66v-23.2a7.66,7.66,0,0,1,7.66-7.66h486.3a7.67,7.67,0,0,1,7.67,7.66Z"/></g></svg>