<svg id="07e0ef69-405a-4872-8e29-572861c8a54d" data-name="Layer 1" xmlns="http://www.w3.org/2000/svg" viewBox="0 0 465.71 465.71"><defs><style>.eeeb33c8-89bb-4b0a-b2c5-c86c57d0e4eb{fill:#21296a;}</style></defs><title>Artboard 2 copyAMA</title><path class="eeeb33c8-89bb-4b0a-b2c5-c86c57d0e4eb" d="M413.78,383.06l-31.29-52.15a154.92,154.92,0,0,1-22.09-79.7V205.52c0-57.67-38.49-106.46-91.11-122.18V50.63a36.45,36.45,0,0,0-72.89,0V83.34c-52.63,15.73-91.11,64.51-91.11,122.18v45.68a155,155,0,0,1-22.07,79.69L51.94,383a9.13,9.13,0,0,0,7.8,13.81H406a9.11,9.11,0,0,0,7.82-13.79Z"/><path class="eeeb33c8-89bb-4b0a-b2c5-c86c57d0e4eb" d="M175.47,415.08a63.4,63.4,0,0,0,114.76,0Z"/></svg>