<svg id="ee7bb8da-56dd-459a-a3c8-e51ea6b33db3" data-name="Layer 1" xmlns="http://www.w3.org/2000/svg" viewBox="0 0 45.47 45.35"><defs><style>.\35 0a1dae5-e51a-4b20-b1ac-764b53f60063{fill:#fff;}.\34 f9d8288-cbbc-428d-abce-c482f26bf920{fill:#5e2483;}.bf4e7dae-4b96-4dc3-a491-9fb6d3c951bf{fill:#ffea00;}.\30 632ae4a-a1d1-4b50-a90d-f41b351ddf85{fill:#d5007f;}</style></defs><title>Artboard 1sahay</title><rect class="50a1dae5-e51a-4b20-b1ac-764b53f60063" width="45.47" height="45.35"/><path class="4f9d8288-cbbc-428d-abce-c482f26bf920" d="M7.62,34.6H8l.79,1.84h0l.8-1.84H10v2.34H9.76V35h0l-.84,2H8.75l-.84-2h0v2H7.62Z"/><path class="4f9d8288-cbbc-428d-abce-c482f26bf920" d="M11.88,37a1.26,1.26,0,0,1-.49-.09,1.14,1.14,0,0,1-.64-.65,1.37,1.37,0,0,1,0-1,1.15,1.15,0,0,1,.25-.39,1.2,1.2,0,0,1,.39-.26,1.35,1.35,0,0,1,1,0,1.2,1.2,0,0,1,.39.26,1.15,1.15,0,0,1,.25.39,1.37,1.37,0,0,1,0,1,1.14,1.14,0,0,1-.64.65A1.26,1.26,0,0,1,11.88,37Zm0-.26a.92.92,0,0,0,.38-.08.9.9,0,0,0,.29-.21.94.94,0,0,0,.19-.31,1.09,1.09,0,0,0,0-.76,1,1,0,0,0-.19-.31.92.92,0,0,0-1.34,0,1,1,0,0,0-.19.31,1.09,1.09,0,0,0,0,.76.94.94,0,0,0,.19.31.9.9,0,0,0,.29.21A.92.92,0,0,0,11.88,36.74Z"/><path class="4f9d8288-cbbc-428d-abce-c482f26bf920" d="M13.72,34.6h.71a1.36,1.36,0,0,1,.28,0,.75.75,0,0,1,.25.1.54.54,0,0,1,.18.18.51.51,0,0,1,.07.27.52.52,0,0,1-.11.34.59.59,0,0,1-.3.19h0a.57.57,0,0,1,.21.06.58.58,0,0,1,.17.12.57.57,0,0,1,.11.18.65.65,0,0,1,0,.54.61.61,0,0,1-.21.2.94.94,0,0,1-.29.1,1.82,1.82,0,0,1-.33,0h-.7Zm.28,1h.58a.54.54,0,0,0,.17-.05.32.32,0,0,0,.12-.12.36.36,0,0,0,0-.2.32.32,0,0,0,0-.18.31.31,0,0,0-.11-.11.48.48,0,0,0-.16-.05l-.18,0H14Zm0,1.09h.47l.2,0a.61.61,0,0,0,.18-.07.4.4,0,0,0,.13-.13.35.35,0,0,0,0-.19.41.41,0,0,0,0-.21.38.38,0,0,0-.13-.13.51.51,0,0,0-.18-.07l-.21,0H14Z"/><path class="4f9d8288-cbbc-428d-abce-c482f26bf920" d="M16,34.6h.28v2.34H16Z"/><path class="4f9d8288-cbbc-428d-abce-c482f26bf920" d="M17,34.6h.28v2.08h1.07v.26H17Z"/><path class="4f9d8288-cbbc-428d-abce-c482f26bf920" d="M18.82,34.6h1.47v.26H19.09v.73h1.11v.26H19.09v.83h1.25v.26H18.82Z"/><path class="4f9d8288-cbbc-428d-abce-c482f26bf920" d="M22,34.6h.71a1.36,1.36,0,0,1,.28,0,.75.75,0,0,1,.25.1.54.54,0,0,1,.18.18.51.51,0,0,1,.07.27.52.52,0,0,1-.11.34.59.59,0,0,1-.3.19h0a.57.57,0,0,1,.21.06.59.59,0,0,1,.17.12.57.57,0,0,1,.11.18.65.65,0,0,1,0,.54.61.61,0,0,1-.21.2.94.94,0,0,1-.29.1,1.81,1.81,0,0,1-.33,0H22Zm.28,1h.58a.54.54,0,0,0,.17-.05.32.32,0,0,0,.12-.12.36.36,0,0,0,0-.2.32.32,0,0,0,0-.18.31.31,0,0,0-.11-.11.48.48,0,0,0-.16-.05l-.18,0h-.41Zm0,1.09h.47l.2,0a.61.61,0,0,0,.18-.07.4.4,0,0,0,.13-.13.35.35,0,0,0,0-.19.41.41,0,0,0,0-.21.38.38,0,0,0-.13-.13.51.51,0,0,0-.18-.07l-.21,0h-.48Z"/><path class="4f9d8288-cbbc-428d-abce-c482f26bf920" d="M25,34.6h.26l1,2.34H26l-.24-.58H24.57l-.24.58H24Zm.13.36h0l-.49,1.15h1Z"/><path class="4f9d8288-cbbc-428d-abce-c482f26bf920" d="M26.78,34.6h.35l1.36,1.94h0V34.6h.28v2.34h-.35L27.06,35h0v1.94h-.28Z"/><path class="4f9d8288-cbbc-428d-abce-c482f26bf920" d="M29.52,34.6h.28v1h0l1.06-1h.4l-1.16,1.07,1.21,1.27H31l-1.11-1.19h0v1.19h-.28Z"/><path class="4f9d8288-cbbc-428d-abce-c482f26bf920" d="M31.77,34.6H32v2.34h-.28Z"/><path class="4f9d8288-cbbc-428d-abce-c482f26bf920" d="M32.8,34.6h.35l1.36,1.94h0V34.6h.28v2.34h-.35L33.08,35h0v1.94H32.8Z"/><path class="4f9d8288-cbbc-428d-abce-c482f26bf920" d="M37.53,36.78a1.6,1.6,0,0,1-.42.17,1.92,1.92,0,0,1-.45.05,1.37,1.37,0,0,1-.5-.09,1.19,1.19,0,0,1-.39-.25,1.14,1.14,0,0,1-.26-.39,1.3,1.3,0,0,1-.09-.5,1.26,1.26,0,0,1,.1-.5,1.13,1.13,0,0,1,.27-.39,1.25,1.25,0,0,1,.4-.25,1.34,1.34,0,0,1,.49-.09,1.42,1.42,0,0,1,.44.07,1,1,0,0,1,.38.24l-.21.22a.8.8,0,0,0-.29-.2.92.92,0,0,0-.35-.07,1,1,0,0,0-.37.07.93.93,0,0,0-.3.2.91.91,0,0,0-.2.31,1,1,0,0,0-.07.39,1,1,0,0,0,.07.39.93.93,0,0,0,.2.31.89.89,0,0,0,.31.2,1,1,0,0,0,.39.07,1.4,1.4,0,0,0,.3,0,1.18,1.18,0,0,0,.28-.1v-.72h-.54v-.26h.82Z"/><path class="bf4e7dae-4b96-4dc3-a491-9fb6d3c951bf" d="M12.37,32a2.3,2.3,0,0,0,.23-1,1.9,1.9,0,0,0-.76-1.61,2.8,2.8,0,0,0-.72-.4l-.73-.25-.55-.19a1.78,1.78,0,0,1-.4-.2A.78.78,0,0,1,9.21,28a.7.7,0,0,1-.08-.36.75.75,0,0,1,.09-.39A.9.9,0,0,1,9.47,27a1,1,0,0,1,.36-.17,1.62,1.62,0,0,1,.41-.06,1.48,1.48,0,0,1,.69.15,1.32,1.32,0,0,1,.48.39l.16.22,1-1-.15-.17a2.52,2.52,0,0,0-.94-.64,3.25,3.25,0,0,0-1.23-.23,3.56,3.56,0,0,0-.92.12,2.53,2.53,0,0,0-.85.4,2.16,2.16,0,0,0-.62.69,2,2,0,0,0-.24,1,2.08,2.08,0,0,0,.18.91,1.92,1.92,0,0,0,.47.62,2.47,2.47,0,0,0,.64.4,5.53,5.53,0,0,0,.68.25l.63.21a2.14,2.14,0,0,1,.47.22.91.91,0,0,1,.29.29.74.74,0,0,1,.1.4.83.83,0,0,1-.1.42,1,1,0,0,1-.26.3,1.17,1.17,0,0,1-.37.18,1.61,1.61,0,0,1-1.21-.14,1.63,1.63,0,0,1-.58-.51L8.47,31,7.33,32l.15.18A2.78,2.78,0,0,0,8.59,33a3.54,3.54,0,0,0,1.36.27,3.48,3.48,0,0,0,1-.14,2.57,2.57,0,0,0,.85-.43A2.19,2.19,0,0,0,12.37,32Z"/><path class="bf4e7dae-4b96-4dc3-a491-9fb6d3c951bf" d="M15.3,25.67l-3.22,7.43h1.6l.7-1.71h3l.71,1.71h1.62L16.5,25.67Zm-.39,4.39,1-2.38.95,2.38Z"/><polygon class="bf4e7dae-4b96-4dc3-a491-9fb6d3c951bf" points="24.25 28.57 21.21 28.57 21.21 25.67 19.76 25.67 19.76 33.09 21.21 33.09 21.21 29.91 24.25 29.91 24.25 33.09 25.71 33.09 25.71 25.67 24.25 25.67 24.25 28.57"/><path class="bf4e7dae-4b96-4dc3-a491-9fb6d3c951bf" d="M29,25.67l-3.22,7.43h1.6l.7-1.71h3l.71,1.71h1.62l-3.19-7.43Zm-.39,4.39,1-2.38.95,2.38Z"/><polygon class="bf4e7dae-4b96-4dc3-a491-9fb6d3c951bf" points="36.44 25.67 34.64 28.59 32.84 25.67 31.07 25.67 33.88 29.92 33.88 33.09 35.34 33.09 35.34 29.92 38.14 25.67 36.44 25.67"/><path class="0632ae4a-a1d1-4b50-a90d-f41b351ddf85" d="M26.37,13.24a.24.24,0,0,1,0,.06,8.31,8.31,0,0,1,3.11-.43c1.42.1.48-.71-.22-1.23s-.47-.59-.69-1-1.32,1.26-1.45,1.19.19-.4.74-1,.22-1.16-.3-1.59a4.59,4.59,0,0,0-5.43-.12c-.11.07-.22.19-.08.33.41.42,1.45,2,1.2,2,.1.18-1.47-2.47-1.84-2s-.27.48-.82.77a.47.47,0,0,0-.21.72,7.43,7.43,0,0,0,1.94,1.11l.1,0C25.14,11.65,26.49,12.77,26.37,13.24Z"/><path class="0632ae4a-a1d1-4b50-a90d-f41b351ddf85" d="M26.24,13.46v0s0,0,0,0h0a8.93,8.93,0,0,0-.84-.31h-.05c-1.49-.42-3-.19-3.6,1.31-.45,1.07,0,2.25,1,3.36s1.36,2.11.89,2.84a1.91,1.91,0,0,1-2.65.25,5,5,0,0,0,.77.24,1.42,1.42,0,0,0,1.54-.67c.24-.56,0-1.42-1.07-2.5a3.23,3.23,0,0,1-.94-3.45s-3.08,2-2.18,5.31A3.56,3.56,0,0,0,21,22.13,3.33,3.33,0,0,0,24.19,22a2.71,2.71,0,0,0,1.28-1.59c.35-1,.24-1.91-1.09-3.57-.87-1.09-1-1.84-.46-2.56A1.32,1.32,0,0,1,25,13.82v0c-.83,0-1.5,1-.37,2.33s1.85,3.09,1.27,4.39a2.31,2.31,0,0,1-.82,1c1.72,0,4.05-2.47,4-4.47a4.89,4.89,0,0,0-2.75-3.71v0Z"/><path class="bf4e7dae-4b96-4dc3-a491-9fb6d3c951bf" d="M26.34,13.3a.24.24,0,0,0,0-.06c.12-.47-1.24-1.59-4-1.12l-.1,0a6.43,6.43,0,0,0-3.45,2.46c-1.15,1.71-3.36-.42-3.46-.43l-.12.34c.05,0,2.77,1.74,3.82.31,2.11-2.85,4.54-2.54,5.37-2.3A4.84,4.84,0,0,0,20,14.1a5.42,5.42,0,0,0-.82,1.47c-.26.69-.44,1-1.51.72v.27c1.8.33,1.42-1.14,2.77-2.31a5.13,5.13,0,0,1,4.86-1.13h.05a8.93,8.93,0,0,1,.84.31h0s0,0,0,0v0h0v0l0,0Z"/></svg>