<svg xmlns="http://www.w3.org/2000/svg" viewBox="0 0 101.72 103.39"><defs><style>.\37 e10d236-d226-4cf4-aa76-fdb7e3ed42cd{fill:#999;}</style></defs><title>Asset 19aminuare</title><g id="c64ae227-d653-4be0-9196-c92c954f066a" data-name="Layer 2"><g id="8fd0e42e-8c18-4b06-ac71-f3b752e727ca" data-name="Layer 1"><path class="7e10d236-d226-4cf4-aa76-fdb7e3ed42cd" d="M86.55,34.45l.37-.17c0-.15,0-.32,0-.48,0-.65,0-1.31-.06-1.94a33.54,33.54,0,0,0-3.55-13.2l-.09-.18L83.1,18l-.91-1.4-.09-.15L82,16.35h0c-.37-.61-.76-1.2-1.17-1.78v0c-.07-.11-.15-.22-.23-.32a34.32,34.32,0,0,0-55.85.26c-.57.81-1.1,1.63-1.6,2.49a33.19,33.19,0,0,0-4.36,13.73c-.1.92-.15,1.89-.16,2.86h0l.36.22-.36-.21c0,.07,0,.14,0,.22,0,18.67,15.29,35.57,34.14,35.57,17.77,0,32.36-15,34-32.34l0-.13h0c.08-.86.13-1.72.14-2.58l-.38.17A0,0,0,0,1,86.55,34.45ZM68.8,40a4.69,4.69,0,0,0-2.57,4.85,13.89,13.89,0,0,1,.11,1.7A13.53,13.53,0,0,1,49.14,59.52,13.38,13.38,0,0,1,39.35,45a5,5,0,0,0-2.78-5.05,13.33,13.33,0,0,1-7.21-14.09,13.55,13.55,0,0,1,20.12-9.45,6.57,6.57,0,0,0,6.6,0,13.56,13.56,0,0,1,20.16,9.49A13.37,13.37,0,0,1,68.8,40Zm12.73-4.46h0Z" transform="translate(-0.41)"/><path class="7e10d236-d226-4cf4-aa76-fdb7e3ed42cd" d="M68.58,28.17a5.4,5.4,0,1,1-5.4-5.35A5.37,5.37,0,0,1,68.58,28.17Z" transform="translate(-0.41)"/><path class="7e10d236-d226-4cf4-aa76-fdb7e3ed42cd" d="M47.18,26.61a5.4,5.4,0,0,1-10.81,0Z" transform="translate(-0.41)"/><path class="7e10d236-d226-4cf4-aa76-fdb7e3ed42cd" d="M58.53,44.93c-5.39,5.33-12,.16-12.25-.06A1,1,0,0,0,45,45a.93.93,0,0,0,.13,1.32,14.33,14.33,0,0,0,8,2.87,9.44,9.44,0,0,0,6.82-2.94.93.93,0,0,0,0-1.32A1,1,0,0,0,58.53,44.93Z" transform="translate(-0.41)"/><path class="7e10d236-d226-4cf4-aa76-fdb7e3ed42cd" d="M54.46,39.36a1,1,0,0,1,0-1.45,1,1,0,0,1,1.47,0,1,1,0,0,1,0,1.45A1,1,0,0,1,54.46,39.36Z" transform="translate(-0.41)"/><ellipse class="7e10d236-d226-4cf4-aa76-fdb7e3ed42cd" cx="50.41" cy="38.64" rx="1.04" ry="1.03"/><path class="7e10d236-d226-4cf4-aa76-fdb7e3ed42cd" d="M5.22,87.83H.66a9.37,9.37,0,0,1,0-4.27h14q.11.6.16,1.12a9.39,9.39,0,0,1,.05,1,12.87,12.87,0,0,1-.22,2.16H10.06v15.32a14.89,14.89,0,0,1-2.41.25,14.61,14.61,0,0,1-2.43-.25Z" transform="translate(-0.41)"/><path class="7e10d236-d226-4cf4-aa76-fdb7e3ed42cd" d="M17.67,103.17q-.63.11-1.15.16a9.77,9.77,0,0,1-1,.05,11.05,11.05,0,0,1-1.13-.07c-.43,0-.91-.11-1.44-.21l6.13-19.53,1.33-.14q.62-.05,1.24-.05t1.14.05l1.41.14,6,19.56a17.83,17.83,0,0,1-2.74.25q-.55,0-1.09-.05t-1.18-.16l-1-3.8a12,12,0,0,1-1.46.33,8.73,8.73,0,0,1-2.67,0,11.7,11.7,0,0,1-1.37-.29ZM21.5,88.73l-1.83,7c.31.09.6.16.88.22a4.31,4.31,0,0,0,.85.08A6.07,6.07,0,0,0,22.3,96a7.77,7.77,0,0,0,.94-.21Z" transform="translate(-0.41)"/><path class="7e10d236-d226-4cf4-aa76-fdb7e3ed42cd" d="M39.74,83.61q.63-.11,1.31-.16t1.4-.05q.47,0,1.2.07t1.26.15l-6.1,12.55v7a14.88,14.88,0,0,1-2.41.25,14.61,14.61,0,0,1-2.43-.25v-7l-1.49-3.08-1.56-3.2-1.54-3.2L27.9,83.61q.47-.08,1.26-.15t1.5-.07q.57,0,1.27.07t1.22.15l3.36,7.6Z" transform="translate(-0.41)"/><path class="7e10d236-d226-4cf4-aa76-fdb7e3ed42cd" d="M64.6,83.61a11.77,11.77,0,0,1,1.2-.18q.49,0,1,0t1.15,0a13,13,0,0,1,1.37.18l-4.7,19.53q-.41.08-1.05.16a11.17,11.17,0,0,1-1.41.08,11.43,11.43,0,0,1-1.49-.1c-.48-.06-.81-.11-1-.15l-2.6-11.32-2.76,11.32c-.16,0-.47.09-.92.15a11.11,11.11,0,0,1-2.8,0q-.6-.08-1-.16L45,83.64q.77-.14,1.48-.19t1.26-.05q.52,0,1.08,0a11.21,11.21,0,0,1,1.27.18l2.27,12.5q.68-3,1.37-6.28t1.34-6.22l1.09-.15a11,11,0,0,1,1.23-.07,9.63,9.63,0,0,1,1.12.07q.57.07,1,.15l2.84,12.64Z" transform="translate(-0.41)"/><path class="7e10d236-d226-4cf4-aa76-fdb7e3ed42cd" d="M73.05,103.17q-.63.11-1.15.16a9.77,9.77,0,0,1-1,.05,11.05,11.05,0,0,1-1.13-.07c-.43,0-.91-.11-1.44-.21l6.13-19.53,1.33-.14q.62-.05,1.24-.05t1.14.05l1.41.14,6,19.56a17.83,17.83,0,0,1-2.74.25q-.55,0-1.09-.05t-1.18-.16l-1-3.8a12,12,0,0,1-1.46.33,8.73,8.73,0,0,1-2.67,0,11.7,11.7,0,0,1-1.37-.29Zm3.83-14.44-1.83,7c.31.09.6.16.88.22a4.31,4.31,0,0,0,.85.08,6.07,6.07,0,0,0,.92-.07,7.77,7.77,0,0,0,.94-.21Z" transform="translate(-0.41)"/><path class="7e10d236-d226-4cf4-aa76-fdb7e3ed42cd" d="M87.38,83.61q.6-.11,1.09-.16a8.75,8.75,0,0,1,1-.05,8.19,8.19,0,0,1,1,.07q.53.07.92.15l6.35,10.72V83.61q.71-.11,1.29-.16t1-.05a9.52,9.52,0,0,1,1,.05q.52.06,1.09.16l0,19.53a6.46,6.46,0,0,1-.79.16,7.84,7.84,0,0,1-2.35,0l-.79-.15L91.79,92.48v10.67a11,11,0,0,1-2.19.25,11.41,11.41,0,0,1-2.22-.25Z" transform="translate(-0.41)"/></g></g></svg>