<svg xmlns="http://www.w3.org/2000/svg" viewBox="0 0 31.68 31.68"><title>Asset 7taywanuser</title><g id="7027517b-e722-4834-84f9-9a0ad62e7044" data-name="Layer 2"><g id="a929bab8-d459-474c-9b6d-6e5b5f5ce374" data-name="Layer 1"><path d="M31.68,15.84A15.84,15.84,0,1,0,15.84,31.68,15.83,15.83,0,0,0,31.68,15.84Zm-15.84-14A14,14,0,0,1,27.43,23.67a15.84,15.84,0,0,0-23.18,0A14,14,0,0,1,15.84,1.86ZM5.41,25.16a14,14,0,0,1,20.87,0A14,14,0,0,1,5.41,25.16Z"/><path d="M15.84,17.21a6.71,6.71,0,1,1,6.71-6.71A6.72,6.72,0,0,1,15.84,17.21Zm0-12a5.29,5.29,0,1,0,5.29,5.29A5.3,5.3,0,0,0,15.84,5.21Z"/></g></g></svg>