<svg xmlns="http://www.w3.org/2000/svg" viewBox="0 0 342.26 456.15"><defs><style>.\38 5980e51-25cf-4bfa-8f35-308dc214be3a{fill:#21296a;}</style></defs><title>Asset 23404</title><g id="213a430d-e52b-4a1b-b86a-e258cdfa4912" data-name="Layer 2"><g id="b696a881-51c4-4fbc-a303-48340adc66f7" data-name="Layer 1"><path class="85980e51-25cf-4bfa-8f35-308dc214be3a" d="M171.13,0A171.13,171.13,0,1,0,342.26,171.13,171.13,171.13,0,0,0,171.13,0Zm77.66,194.62a22.29,22.29,0,0,0-12.45,23.25,62.79,62.79,0,0,1,.5,8.14c0,41-39.52,73.23-83.52,61.94a63.71,63.71,0,0,1-44.5-41.35,62.91,62.91,0,0,1-3-28.39,23.93,23.93,0,0,0-13.45-24.08c-24.24-12.12-39.85-38.36-35-67.58,4.15-26.57,26.24-48.32,53.47-53A67.09,67.09,0,0,1,155,81.38a32.76,32.76,0,0,0,32.21,0,67,67,0,0,1,44.5-7.8c27.23,4.65,49.15,26.57,53.3,53.14C289.64,156.26,273.7,182.83,248.79,194.62Z"/><path class="85980e51-25cf-4bfa-8f35-308dc214be3a" d="M144.62,132.68c0,14.55-12.14,26.32-27,26.32s-27-11.77-27-26.32Z"/><path class="85980e51-25cf-4bfa-8f35-308dc214be3a" d="M251.75,132.68c0,14.55-12.14,26.32-27,26.32s-27-11.77-27-26.32Z"/><path class="85980e51-25cf-4bfa-8f35-308dc214be3a" d="M140.49,242.76c27-26.3,59.9-.81,61.32.32a4.82,4.82,0,0,0,6.65-.66,4.54,4.54,0,0,0-.67-6.5c-.27-.21-18.17-14.18-39.83-14.18-11,0-23,3.61-34.16,14.49a4.54,4.54,0,0,0,0,6.53A4.81,4.81,0,0,0,140.49,242.76Z"/><path class="85980e51-25cf-4bfa-8f35-308dc214be3a" d="M181.08,195.61a5,5,0,0,1,0-7.16,5.28,5.28,0,0,1,7.34,0,5,5,0,0,1,0,7.16A5.28,5.28,0,0,1,181.08,195.61Z"/><ellipse class="85980e51-25cf-4bfa-8f35-308dc214be3a" cx="162.83" cy="192.03" rx="5.19" ry="5.06"/><path class="85980e51-25cf-4bfa-8f35-308dc214be3a" d="M60.17,440.31v-11l29.45-63.48h11.26l1.7,3L75,428.27h31.81v-28.4h13.35v56.28H106.77V440.31Z"/><path class="85980e51-25cf-4bfa-8f35-308dc214be3a" d="M135.83,435.46v-49q0-20.68,20.68-20.68h18.59q20.68,0,20.68,20.68v49q0,20.68-20.68,20.68H156.51Q135.82,456.15,135.83,435.46Zm13.35,1.18q0,7.46,7.46,7.46H175q7.46,0,7.46-7.46V385.33q0-7.46-7.46-7.46H156.64q-7.46,0-7.46,7.46Z"/><path class="85980e51-25cf-4bfa-8f35-308dc214be3a" d="M211.48,440.31v-11l29.45-63.48h11.26l1.7,3-27.62,59.42h31.81v-28.4h13.35v56.28H258.08V440.31Z"/></g></g></svg>