<svg id="563a0a49-f8e8-4e83-8ff6-23e4597f7bc6" data-name="Layer 1" xmlns="http://www.w3.org/2000/svg" viewBox="0 0 465.71 465.71"><defs><style>.ecbc4d48-f829-4144-8e42-5a7e725b26a3{fill:#21296a;}</style></defs><title>Artboard 2 copy 3AMA</title><path class="ecbc4d48-f829-4144-8e42-5a7e725b26a3" d="M232.86,16.07A110.67,110.67,0,1,0,343.52,126.74,110.79,110.79,0,0,0,232.86,16.07Z"/><path class="ecbc4d48-f829-4144-8e42-5a7e725b26a3" d="M370.55,309.7C340.25,278.94,300.08,262,257.45,262H208.26c-42.63,0-82.8,16.94-113.1,47.71A161.28,161.28,0,0,0,48.41,423.49a12.3,12.3,0,0,0,12.3,12.3H405a12.3,12.3,0,0,0,12.3-12.3A161.28,161.28,0,0,0,370.55,309.7Z"/></svg>