<svg id="d8b318ac-1167-4faf-aa04-d6c858744c57" data-name="Layer 1 copy 3" xmlns="http://www.w3.org/2000/svg" viewBox="0 0 512 512"><defs><style>.\32 f76aff5-39a0-4e00-9605-4b377985b189{fill:#a6a9c3;}.\37 76a52a0-3a7c-4df2-aeb4-3410c55ca7c7{fill:#4d5488;}.ab73cdef-415b-4575-bc0a-d3cff01848ed{fill:#fcc325;}.\30 ac40ad2-d58e-4a85-8a58-2f15c4161caa{fill:#043c49;}</style></defs><title>Artboard 1splash-screen</title><path class="2f76aff5-39a0-4e00-9605-4b377985b189" d="M40,160H480V456H40Z"/><path class="2f76aff5-39a0-4e00-9605-4b377985b189" d="M8,160H504L256,8Z"/><path class="776a52a0-3a7c-4df2-aeb4-3410c55ca7c7" d="M24,160H496v32H24Z"/><path class="776a52a0-3a7c-4df2-aeb4-3410c55ca7c7" d="M24,424H496v32H24Z"/><path class="ab73cdef-415b-4575-bc0a-d3cff01848ed" d="M224,192h64V424H224Z"/><path class="ab73cdef-415b-4575-bc0a-d3cff01848ed" d="M416,192h64V424H416Z"/><path class="2f76aff5-39a0-4e00-9605-4b377985b189" d="M8,456H504v47.5H8Z"/><path class="ab73cdef-415b-4575-bc0a-d3cff01848ed" d="M40,192h64V424H40Z"/><path class="0ac40ad2-d58e-4a85-8a58-2f15c4161caa" d="M160,136h-8a8,8,0,1,1,0-16h8a8,8,0,0,1,0,16Z"/><path class="0ac40ad2-d58e-4a85-8a58-2f15c4161caa" d="M192,136h-8a8,8,0,1,1,0-16h8a8,8,0,0,1,0,16Z"/><path class="0ac40ad2-d58e-4a85-8a58-2f15c4161caa" d="M128,136h-8a8,8,0,1,1,0-16h8a8,8,0,0,1,0,16Z"/><path class="0ac40ad2-d58e-4a85-8a58-2f15c4161caa" d="M440,488h-8a8,8,0,0,1,0-16h8a8,8,0,0,1,0,16Z"/><path class="0ac40ad2-d58e-4a85-8a58-2f15c4161caa" d="M472,488h-8a8,8,0,0,1,0-16h8a8,8,0,0,1,0,16Z"/><path class="0ac40ad2-d58e-4a85-8a58-2f15c4161caa" d="M408,488h-8a8,8,0,0,1,0-16h8a8,8,0,0,1,0,16Z"/><path class="0ac40ad2-d58e-4a85-8a58-2f15c4161caa" d="M504,168H8a8,8,0,0,1-4.18-14.82l248-152a8,8,0,0,1,8.36,0l248,152A8,8,0,0,1,504,168ZM36.36,152H475.64L256,17.38Z"/><path class="0ac40ad2-d58e-4a85-8a58-2f15c4161caa" d="M504,511.5H8a8,8,0,0,1-8-8V456a8,8,0,0,1,8-8H504a8,8,0,0,1,8,8v47.5A8,8,0,0,1,504,511.5Zm-488-16H496V464H16Z"/><path class="0ac40ad2-d58e-4a85-8a58-2f15c4161caa" d="M296,432H216a8,8,0,0,1,0-16h80a8,8,0,0,1,0,16Z"/><path class="0ac40ad2-d58e-4a85-8a58-2f15c4161caa" d="M296,200H216a8,8,0,0,1,0-16h80a8,8,0,0,1,0,16Z"/><path class="0ac40ad2-d58e-4a85-8a58-2f15c4161caa" d="M224,408a8,8,0,0,1-8-8V216a8,8,0,0,1,16,0V400A8,8,0,0,1,224,408Z"/><path class="0ac40ad2-d58e-4a85-8a58-2f15c4161caa" d="M256,408a8,8,0,0,1-8-8V216a8,8,0,0,1,16,0V400A8,8,0,0,1,256,408Z"/><path class="0ac40ad2-d58e-4a85-8a58-2f15c4161caa" d="M288,408a8,8,0,0,1-8-8V216a8,8,0,0,1,16,0V400A8,8,0,0,1,288,408Z"/><path class="0ac40ad2-d58e-4a85-8a58-2f15c4161caa" d="M488,432H408a8,8,0,0,1,0-16h80a8,8,0,0,1,0,16Z"/><path class="0ac40ad2-d58e-4a85-8a58-2f15c4161caa" d="M488,200H408a8,8,0,0,1,0-16h80a8,8,0,0,1,0,16Z"/><path class="0ac40ad2-d58e-4a85-8a58-2f15c4161caa" d="M416,408a8,8,0,0,1-8-8V216a8,8,0,0,1,16,0V400A8,8,0,0,1,416,408Z"/><path class="0ac40ad2-d58e-4a85-8a58-2f15c4161caa" d="M448,408a8,8,0,0,1-8-8V216a8,8,0,0,1,16,0V400A8,8,0,0,1,448,408Z"/><path class="0ac40ad2-d58e-4a85-8a58-2f15c4161caa" d="M480,408a8,8,0,0,1-8-8V216a8,8,0,0,1,16,0V400A8,8,0,0,1,480,408Z"/><path class="0ac40ad2-d58e-4a85-8a58-2f15c4161caa" d="M112,432H32a8,8,0,0,1,0-16h80a8,8,0,0,1,0,16Z"/><path class="0ac40ad2-d58e-4a85-8a58-2f15c4161caa" d="M112,200H32a8,8,0,0,1,0-16h80a8,8,0,0,1,0,16Z"/><path class="0ac40ad2-d58e-4a85-8a58-2f15c4161caa" d="M40,408a8,8,0,0,1-8-8V216a8,8,0,0,1,16,0V400A8,8,0,0,1,40,408Z"/><path class="0ac40ad2-d58e-4a85-8a58-2f15c4161caa" d="M72,408a8,8,0,0,1-8-8V216a8,8,0,0,1,16,0V400A8,8,0,0,1,72,408Z"/><path class="0ac40ad2-d58e-4a85-8a58-2f15c4161caa" d="M104,408a8,8,0,0,1-8-8V216a8,8,0,0,1,16,0V400A8,8,0,0,1,104,408Z"/></svg>