<svg id="bc42fb7e-c029-4041-8b54-e3aebdb77dc9" data-name="Layer 1" xmlns="http://www.w3.org/2000/svg" viewBox="0 0 591 591"><defs><style>.\38 a4436e3-7d97-4018-83c1-0b87a95f1508{fill:#a6a9c3;}.\33 260301b-8dc6-4132-a01f-4228daea8942{fill:#21296a;}</style></defs><title>Artboard 1 copy 2icon</title><path class="8a4436e3-7d97-4018-83c1-0b87a95f1508" d="M401.38,88.33,382.89,69.84H356.26l18.49,18.49H297l-18.5-18.49h-8.71l-8.95,8.95,66.52,66.53a18.88,18.88,0,0,1-26.65,26.76l-55.56-55.55-6.59,5.65a49.93,49.93,0,0,1-63.48.93l-5.45-4.41L157.8,133.31l5.51,4.48A68.91,68.91,0,0,0,182.5,148.6v45.51A85,85,0,0,1,139.3,180l-10.48-6.93H107.17V69.84H88.33V201.33H31.83V69.84H13V220.17h94.17V191.92h16l5.7,3.77a103.77,103.77,0,0,0,53.63,17.26V333.17H578V88.33Zm7.12,122.42a28.25,28.25,0,1,1-28.25-28.25A28.26,28.26,0,0,1,408.5,210.75Z"/><path class="3260301b-8dc6-4132-a01f-4228daea8942" d="M483.83,389.67v30.47l-24-14.37a47.13,47.13,0,0,0-24.2-6.69H399.57a85.35,85.35,0,0,0-21.89,2.83L268.92,431.1a37.93,37.93,0,0,0-25.61,23.75L147.66,403.1a37.48,37.48,0,0,0-25.6-4.23,35.3,35.3,0,0,0-9.52,3.12,37.06,37.06,0,0,0-16.17,15.07,37.67,37.67,0,0,0-5,18.74A37.29,37.29,0,0,0,110,468.37L281.43,570.95A47,47,0,0,0,306.22,578H438.89a47.1,47.1,0,0,0,17.31-3.3l27.63-10.91V578H578V389.67Zm0,153.87-34.55,13.65a28.13,28.13,0,0,1-10.36,2H306.22a28.3,28.3,0,0,1-15-4.31L119.54,452.16a18.72,18.72,0,0,1-9.36-16.35,19.15,19.15,0,0,1,2.52-9.42,18.56,18.56,0,0,1,8.09-7.46,17.64,17.64,0,0,1,4.71-1.53,19.67,19.67,0,0,1,3.61-.34,18.54,18.54,0,0,1,9.23,2.45l103.72,56.05c.12.58.12,1.14.27,1.72a37.78,37.78,0,0,0,36.41,27.87,92.72,92.72,0,0,0,15.53-2.78l97.83-26.18L387.24,458l-97.52,26.07c-4.3,1-9.84,2.12-11,2.21a18.83,18.83,0,0,1-18.2-13.87,17.47,17.47,0,0,1-.55-3.48s-.07-2.28,0-3.08a19,19,0,0,1,13.85-16.61l108.7-29.09a66,66,0,0,1,17-2.24h36.09a28.25,28.25,0,0,1,14.51,4l33.66,20.16Zm75.33,15.63h-56.5V408.5h56.5Z"/><path class="3260301b-8dc6-4132-a01f-4228daea8942" d="M401.38,88.33,382.89,69.84l-32-32A84.19,84.19,0,0,0,290.94,13H172.55a47.54,47.54,0,0,0-21.06,5L130.39,28.53a27.85,27.85,0,0,1-13.65,3l-9.57-.33V13H13V220.17h94.17V191.92h16l5.7,3.77a103.77,103.77,0,0,0,53.63,17.26V333.17H578V88.33Zm-313,113H31.83V31.83h56.5Zm94.17-7.23A85,85,0,0,1,139.3,180l-10.48-6.93H107.17V50l8.88.32a47.41,47.41,0,0,0,22.78-4.94L159.9,34.82a28.29,28.29,0,0,1,12.65-3H290.94a65.48,65.48,0,0,1,46.61,19.3l18.7,18.7,18.49,18.49H297l-18.5-18.49-4.36-4.36-4.36,4.36-8.95,8.95,66.52,66.53a18.88,18.88,0,0,1-26.65,26.76l-55.56-55.55-6.59,5.65a49.93,49.93,0,0,1-63.48.93l-5.45-4.41L157.8,133.31l5.51,4.48A68.91,68.91,0,0,0,182.5,148.6Zm170.55,56a47.65,47.65,0,1,0-7-71.5,37,37,0,0,0,3.1-33.79H475.19a56.69,56.69,0,0,0,46.31,46.31v39.22a56.69,56.69,0,0,0-46.31,46.31H285.31A56.69,56.69,0,0,0,239,230.36V191.14a56.29,56.29,0,0,0,34.25-19.94l14.21,14.21a37.93,37.93,0,0,0,53.2,0A47.65,47.65,0,0,0,353,250.12Zm-1-39.37A28.25,28.25,0,1,1,380.25,239,28.26,28.26,0,0,1,352,210.75ZM559.17,314.33H201.33V152.54a68.48,68.48,0,0,0,42.38-10.83l16.07,16.07a37.58,37.58,0,0,1-30.19,15.3h-9.42v75.33h9.42a37.67,37.67,0,0,1,37.67,37.67v9.42h226v-9.42a37.67,37.67,0,0,1,37.67-37.67h9.42V173.08h-9.42a37.67,37.67,0,0,1-37.67-37.67V126H334.71l-18.83-18.83H559.17Z"/></svg>