<svg id="5eeab433-ed42-49a2-be33-cb0fff445ac7" data-name="Layer 1" xmlns="http://www.w3.org/2000/svg" viewBox="0 0 591 591"><defs><style>.\33 b424049-e2f0-4207-846e-b8d5287ddab8{fill:#a6a9c3;}.c7ba41b3-f8ba-415d-93c1-22f8c59e97ab{fill:#21296a;}</style></defs><title>Artboard 1 copyicon</title><path class="3b424049-e2f0-4207-846e-b8d5287ddab8" d="M440.83,427.06h-9.4V389.47h9.4a18.85,18.85,0,0,1,18.79,18.79h18.79a37.59,37.59,0,0,0-37.59-37.59h-9.4V351.88H412.64v18.79h-9.4a37.59,37.59,0,1,0,0,75.18h9.4v37.59h-9.4a18.85,18.85,0,0,1-18.79-18.79H365.65a37.59,37.59,0,0,0,37.59,37.59h9.4v11.64h18.79V502.24h9.4a37.59,37.59,0,1,0,0-75.18Zm-28.19,0h-9.4a18.79,18.79,0,1,1,0-37.59h9.4Zm28.19,56.38h-9.4V445.85h9.4a18.79,18.79,0,0,1,0,37.59ZM422,295.5V41.78a28.27,28.27,0,0,0-28.19-28.19H168.31a28.27,28.27,0,0,0-28.19,28.19v113.8a47.25,47.25,0,0,0-28.19,17.76,5.55,5.55,0,0,0-.85,1.41l-3.85,7.61v41.54L127.44,184a28.63,28.63,0,0,1,12.69-8.83v157a27.67,27.67,0,0,1-6.86.94H121.33v18.79h11.93a47,47,0,0,0,33.64-14.19l72.36-64.46A18.69,18.69,0,0,1,265,274l2.44,2.44a18.66,18.66,0,0,1,2.35,23.68L207.5,393.7a9.11,9.11,0,0,0-1.6,5.17v28.19a9.44,9.44,0,0,0,1,4.23l8.36,16.82v42.47l-7.71,15.51-7.83,7.79h24.9l8.4-16.81a9.44,9.44,0,0,0,1-4.23v-47h47.46a140.07,140.07,0,0,0,22.89,68h23.11A122.16,122.16,0,0,1,503.09,345.06v-24A140.33,140.33,0,0,0,422,295.5ZM280.5,117a47,47,0,0,1,31.68,12l-31.1,31.1L269,147.87l-13.34,13.34L274.41,180a9.54,9.54,0,0,0,13.34,0l35.8-35.9A47.09,47.09,0,1,1,280.5,117Zm47.56-84.57a8.89,8.89,0,0,1-2.91,6.67,8.72,8.72,0,0,1-6.48,2.73H243.49a9.39,9.39,0,0,1-9.4-9.4Z"/><g id="5c4a0b5f-7cd5-47ed-9da3-cbc0b911442c" data-name="smartphone-online-money"><path class="c7ba41b3-f8ba-415d-93c1-22f8c59e97ab" d="M562.67,426.91A140.88,140.88,0,0,0,422,295.5V41.78a28.27,28.27,0,0,0-28.19-28.19H168.31a28.27,28.27,0,0,0-28.19,28.19v113.8a47.25,47.25,0,0,0-28.19,17.76,5.55,5.55,0,0,0-.85,1.41l-3.85,7.61L33.09,329a47.3,47.3,0,0,0-5,24.53L36.76,474.7c.09.47.09.94.19,1.41l18.42,82.51H36.76v18.79H215.3V558.62H197l7.71-23.12L222,518.3a10.32,10.32,0,0,0,1.69-2.44l1-2,8.4-16.81a9.44,9.44,0,0,0,1-4.23v-47h47.46a140.88,140.88,0,0,0,281.13-18.95ZM328.06,32.38a8.89,8.89,0,0,1-2.91,6.67,8.72,8.72,0,0,1-6.48,2.73H243.49a9.39,9.39,0,0,1-9.4-9.4ZM206.94,431.29l8.36,16.82v42.47l-7.71,15.51-7.83,7.79-9.93,9.88a9.88,9.88,0,0,0-2.26,3.66l-9.4,28.19a11.31,11.31,0,0,0-.47,3H74.34a15.2,15.2,0,0,0-.19-2.07l-18.7-83.82L46.9,352.16a28.73,28.73,0,0,1,2.91-14.75l57.42-113.52L127.44,184a28.63,28.63,0,0,1,12.69-8.83v157a27.67,27.67,0,0,1-6.86.94H121.33v18.79h11.93a47,47,0,0,0,33.64-14.19l72.36-64.46A18.69,18.69,0,0,1,265,274l2.44,2.44a18.66,18.66,0,0,1,2.35,23.68L207.5,393.7a9.11,9.11,0,0,0-1.6,5.17v28.19A9.44,9.44,0,0,0,206.94,431.29Zm18.89-4.23-1.13-2.26V401.69l60.8-91.15a37.83,37.83,0,0,0-4.7-47.46l-2.44-2.44a37.68,37.68,0,0,0-51.59-1.41l-67.85,60.42V41.78a9.39,9.39,0,0,1,9.4-9.4h47a28.27,28.27,0,0,0,28.19,28.19h75.18a28.2,28.2,0,0,0,28.19-28.19h47a9.39,9.39,0,0,1,9.4,9.4V296.91A141,141,0,0,0,281.55,427.06ZM422,558.62A122.16,122.16,0,1,1,544.2,436.46,121.88,121.88,0,0,1,422,558.62Z"/><path class="c7ba41b3-f8ba-415d-93c1-22f8c59e97ab" d="M440.83,427.06h-9.4V389.47h9.4a18.85,18.85,0,0,1,18.79,18.79h18.79a37.59,37.59,0,0,0-37.59-37.59h-9.4V351.88H412.64v18.79h-9.4a37.59,37.59,0,1,0,0,75.18h9.4v37.59h-9.4a18.85,18.85,0,0,1-18.79-18.79H365.65a37.59,37.59,0,0,0,37.59,37.59h9.4V521h18.79V502.24h9.4a37.59,37.59,0,1,0,0-75.18Zm-37.59,0a18.79,18.79,0,1,1,0-37.59h9.4v37.59Zm37.59,56.38h-9.4V445.85h9.4a18.79,18.79,0,0,1,0,37.59Z"/><path class="c7ba41b3-f8ba-415d-93c1-22f8c59e97ab" d="M337.46,130.21l6.67-6.58-13.34-13.34-5.26,5.36a65.52,65.52,0,1,0,11.93,14.57Zm-36.12,76.21A47.1,47.1,0,1,1,312.18,129l-31.1,31.1L269,147.87l-13.34,13.34L274.41,180a9.54,9.54,0,0,0,13.34,0l35.8-35.9A46.78,46.78,0,0,1,301.34,206.42Z"/></g></svg>