<svg xmlns="http://www.w3.org/2000/svg" viewBox="0 0 429.79 174.87"><defs><style>.c3acf5e1-57d1-4771-afe9-f28f3ecaa9b8,.f44c2f05-3980-4c6e-b268-037bae051e27{fill:#fff;}.\30 d554375-f860-4137-b3e6-fecbe304670d,.c3acf5e1-57d1-4771-afe9-f28f3ecaa9b8{stroke:#cecece;stroke-linecap:round;stroke-linejoin:round;stroke-width:4px;}.\30 d554375-f860-4137-b3e6-fecbe304670d,.\36 e7a90e8-1d90-4cd3-bcef-a43c1fbf6b97{fill:none;}.\36 f9989d4-becd-4f02-a795-b64323f849e3{fill:#efefef;}</style></defs><title>Asset 1empty</title><g id="9bcd3d9a-022e-40f3-b65a-1adce39bce8e" data-name="Layer 2"><g id="e0f2f7c8-f169-45c1-a696-dd7f3dfff5f2" data-name="Layer 1"><path class="c3acf5e1-57d1-4771-afe9-f28f3ecaa9b8" d="M202.82,56.46,174.19,28.05,151.6,42.12l12.87,38.22A2.33,2.33,0,0,0,168,81.74L202.54,60.2A2.33,2.33,0,0,0,202.82,56.46Z"/><line class="6e7a90e8-1d90-4cd3-bcef-a43c1fbf6b97" x1="9.37" y1="172.87" x2="427.79" y2="172.87"/><rect class="f44c2f05-3980-4c6e-b268-037bae051e27" x="80.13" y="4.39" width="270.5" height="168.48"/><path class="6f9989d4-becd-4f02-a795-b64323f849e3" d="M330.17,102.93,350.63,57.4v-53H80.13V172.87h270.5V162.6H94.06a5.26,5.26,0,0,1-5.26-5.26V102.93Z"/><rect class="0d554375-f860-4137-b3e6-fecbe304670d" x="80.13" y="4.39" width="270.5" height="168.48"/><rect class="c3acf5e1-57d1-4771-afe9-f28f3ecaa9b8" x="384.86" y="-12.56" width="7.51" height="101.51" rx="3.72" ry="3.72" transform="translate(92.85 293.16) rotate(-46.38)"/><rect class="c3acf5e1-57d1-4771-afe9-f28f3ecaa9b8" x="-10.96" y="34.44" width="101.51" height="7.51" rx="3.72" ry="3.72" transform="translate(-15.37 38) rotate(-43.62)"/><path class="c3acf5e1-57d1-4771-afe9-f28f3ecaa9b8" d="M316.13,79.46H55.46a4.54,4.54,0,0,1-4.18-6.29L80.13,4.39h270.5L320.31,76.68A4.54,4.54,0,0,1,316.13,79.46Z"/><line class="0d554375-f860-4137-b3e6-fecbe304670d" x1="3.87" y1="172.87" x2="427.79" y2="172.87"/></g></g></svg>