<svg xmlns="http://www.w3.org/2000/svg" viewBox="0 0 43.57 37.33"><title>Asset 6taywancart</title><g id="4217de5e-c7d9-4b0e-9c02-7e0de7d10429" data-name="Layer 2"><g id="b0ef813b-0da3-4b3e-82f8-d2089bf4cd4f" data-name="Layer 1"><path d="M14,25.53H37.19a1.28,1.28,0,0,0,1.23-.93L43.53,6.73A1.28,1.28,0,0,0,42.3,5.11H11.1L10.18,1A1.28,1.28,0,0,0,8.94,0H1.28a1.28,1.28,0,0,0,0,2.55H7.91l4.61,20.74A3.83,3.83,0,0,0,14,30.64H37.19a1.28,1.28,0,1,0,0-2.55H14a1.28,1.28,0,0,1,0-2.55ZM40.61,7.66,36.23,23H15.07L11.66,7.66Z"/><path d="M13.73,34.47A2.87,2.87,0,1,0,16.6,31.6,2.87,2.87,0,0,0,13.73,34.47Zm2.87-1.83a1.83,1.83,0,1,1-1.83,1.83A1.83,1.83,0,0,1,16.6,32.64Z"/><path d="M32,34.47a2.87,2.87,0,1,0,2.87-2.87A2.87,2.87,0,0,0,32,34.47Zm2.87-1.83A1.83,1.83,0,1,1,33,34.47,1.83,1.83,0,0,1,34.85,32.64Z"/></g></g></svg>