<svg id="d575f2b1-46ef-4720-af62-5b991eb5a90c" data-name="Layer 1" xmlns="http://www.w3.org/2000/svg" viewBox="0 0 465.71 465.71"><defs><style>.ce9d7f5a-ac7c-444b-82d1-0f63057c10b5{fill:#21296a;}.b944c09e-8771-4cab-ac95-a8cc687fdd5b{fill:#fff;}</style></defs><title>Artboard 2 copy 2AMA</title><path class="ce9d7f5a-ac7c-444b-82d1-0f63057c10b5" d="M136.88,407.24c-19.54-22.2-39.08-45.3-51.51-72.83a165.12,165.12,0,0,1-9.77-95,205,205,0,0,1,40.86-87.93c-1.78,22.2,6.22,45.3,21.32,62.17-8.88-42.63,5.33-88.82,33.75-122.57S239,35.1,279.87,20c-20.43,21.32-23.09,55.07-15.1,83.49s24.87,53.29,40,79,29.31,52.4,30.2,81.71c8-15.1,16.88-30.2,22.2-47.07s8-34.64,3.55-51.51c16,19.54,24.87,39.08,29.31,63.95s3.55,50.63.89,75.49c-3.55,27.53-10.66,56-25.76,79-17.76,27.53-46.18,47.07-77.27,57.73C232.8,451.65,178.62,443.65,136.88,407.24Z"/><path class="b944c09e-8771-4cab-ac95-a8cc687fdd5b" d="M204.38,440.1c72.83,28.42,144.77-57.73,104.8-124.34,0-.89-.89-.89-.89-1.78,3.55,36.41-5.33,63.06-22.2,78.16,8.88-21.32,2.66-46.18-8-67.5-10.66-20.43-25.76-39.08-37.3-58.62-11.55-20.43-20.43-43.52-15.1-66.61-21.32,16-36.41,40-42.63,65.72s-2.66,54.18,8.88,78.16c-13.32-9.77-23.09-25.76-24-42.63-14.21,16.88-23.09,39.08-22.2,61.28C145.76,396.58,173.29,427.67,204.38,440.1Z"/></svg>