<svg id="9b318adf-48dd-43fd-b1f6-9374ca29c086" data-name="Layer 1 copy" xmlns="http://www.w3.org/2000/svg" viewBox="0 0 512.01 364.22"><defs><style>.b440ca72-e462-4007-9bd5-16a131e21377{fill:#7a7fa6;}.\30 9823d8d-97b9-4d36-a1e2-d3f01b0b8998{fill:#a6a9c3;}.d6792bd2-edf2-4822-8651-e163ae541456{fill:#043c49;}.\34 c44171d-72fc-438e-979c-e66fca4f80e7{fill:#4d5488;}.f51107e6-85cf-4a6c-96b8-5f105e559cf6{fill:#d3d4e1;}.\35 17a8ba4-1d8b-40b2-8557-9f3d7958fd8a{fill:#fcc325;}</style></defs><title>cash2</title><path class="b440ca72-e462-4007-9bd5-16a131e21377" d="M183.35,209.77,296,140.1a18.64,18.64,0,0,1,26.28,2.1q.38.44.72.9a18,18,0,0,1-3,21c-10.66,13.34-46,44.66-56.66,58Z"/><path class="b440ca72-e462-4007-9bd5-16a131e21377" d="M128.9,364.1l71.11-80H384l120-112v-48l-120,96-205.87-16a68.72,68.72,0,0,0-45.66,17.36L0,339.1v25Z"/><path class="09823d8d-97b9-4d36-a1e2-d3f01b0b8998" d="M194,244.1c41.74,1.67,123.89-3.65,159.2-26.4L178.14,204.1a68.72,68.72,0,0,0-45.66,17.36L0,339.1v25H40s104-122,154-120Z"/><path class="d6792bd2-edf2-4822-8651-e163ae541456" d="M507.49,116.9a8,8,0,0,0-8.47,1l-117.53,94-91.5-7.1c3.65-3.52,7.57-7.2,11.48-10.82A271.2,271.2,0,0,0,326,169.44a25.94,25.94,0,0,0,3.83-30.54,24.19,24.19,0,0,0-16.49-10.74,28.14,28.14,0,0,0-21.86,5.35l-103,63.4-10.3-.8a76.64,76.64,0,0,0-51,19.38L106.7,233.7a8,8,0,1,0,10.62,12l20.48-18.2a60.42,60.42,0,0,1,39.71-15.4l205.87,16a8.1,8.1,0,0,0,5.6-1.73l107-85.62v27.88L380.85,276.1H200a8,8,0,0,0-6,2.68l-64,72a8,8,0,1,0,11.73,10.88l.22-.25,61.62-69.31H384a8,8,0,0,0,5.46-2.15l120-112A8,8,0,0,0,512,172.1v-48a8,8,0,0,0-4.53-7.2Zm-291.1,81.6,83.83-51.58a8.52,8.52,0,0,0,.74-.51,12.17,12.17,0,0,1,9.6-2.5,8.34,8.34,0,0,1,5.68,3.41,10.4,10.4,0,0,1-2.45,11.79,266.91,266.91,0,0,1-23.2,23.14c-8.08,7.5-15.76,14.66-21.42,20.93l-27.29-2.12Z"/><path class="d6792bd2-edf2-4822-8651-e163ae541456" d="M82.7,255l-8,7.11a8,8,0,1,0,10.62,12l8-7.11A8,8,0,1,0,82.7,255Z"/><path class="d6792bd2-edf2-4822-8651-e163ae541456" d="M50.7,283.45l-48,42.66a8,8,0,1,0,10.62,12h0l48-42.66a8,8,0,1,0-10.62-12Z"/><path class="4c44171d-72fc-438e-979c-e66fca4f80e7" d="M159.53,6.15H338V110.78H159.53Z"/><path class="b440ca72-e462-4007-9bd5-16a131e21377" d="M184.15,30.77H362.62V135.4H184.15Z"/><path class="09823d8d-97b9-4d36-a1e2-d3f01b0b8998" d="M208.76,55.39H387.24V160H208.76Z"/><path class="f51107e6-85cf-4a6c-96b8-5f105e559cf6" d="M233.38,80H405.71v98.47H233.38Z"/><path class="b440ca72-e462-4007-9bd5-16a131e21377" d="M258,80a24.62,24.62,0,0,1-24.62,24.62V80Z"/><path class="b440ca72-e462-4007-9bd5-16a131e21377" d="M405.71,104.63A24.62,24.62,0,0,1,381.09,80h24.62Z"/><path class="b440ca72-e462-4007-9bd5-16a131e21377" d="M381.09,178.48a24.62,24.62,0,0,1,24.62-24.62v24.62Z"/><path class="b440ca72-e462-4007-9bd5-16a131e21377" d="M233.38,153.86A24.62,24.62,0,0,1,258,178.48H233.38Z"/><circle class="517a8ba4-1d8b-40b2-8557-9f3d7958fd8a" cx="319.54" cy="129.24" r="24.62"/><path class="d6792bd2-edf2-4822-8651-e163ae541456" d="M227.23,80v98.47a6.15,6.15,0,0,0,6.15,6.15H405.71a6.15,6.15,0,0,0,6.15-6.15V80a6.15,6.15,0,0,0-6.15-6.15H233.38A6.15,6.15,0,0,0,227.23,80Zm36.31,6.15h112a30.86,30.86,0,0,0,24,24v38.16a30.86,30.86,0,0,0-24,24h-112a30.86,30.86,0,0,0-24-24V110.16a30.86,30.86,0,0,0,24-24Zm-24,75a18.46,18.46,0,0,1,11.18,11.18H239.54Zm148.84,11.18a18.46,18.46,0,0,1,11.18-11.18v11.18Zm11.18-75a18.46,18.46,0,0,1-11.18-11.18h11.18ZM250.71,86.16a18.46,18.46,0,0,1-11.18,11.18V86.16Z"/><path class="d6792bd2-edf2-4822-8651-e163ae541456" d="M319.54,160a30.77,30.77,0,1,0-30.77-30.77A30.77,30.77,0,0,0,319.54,160Zm0-49.24a18.46,18.46,0,1,1-18.46,18.46A18.46,18.46,0,0,1,319.54,110.78Z"/><path class="d6792bd2-edf2-4822-8651-e163ae541456" d="M202.61,55.39V160a6.15,6.15,0,0,0,12.31,0V61.54H387.24a6.15,6.15,0,0,0,0-12.31H208.76A6.15,6.15,0,0,0,202.61,55.39Z"/><path class="d6792bd2-edf2-4822-8651-e163ae541456" d="M178,30.77V135.4a6.15,6.15,0,1,0,12.31,0V36.93H362.62a6.15,6.15,0,0,0,0-12.31H184.15A6.15,6.15,0,0,0,178,30.77Z"/><path class="d6792bd2-edf2-4822-8651-e163ae541456" d="M165.68,110.78V12.31H338A6.15,6.15,0,0,0,338,0H159.53a6.15,6.15,0,0,0-6.15,6.15V110.78a6.15,6.15,0,1,0,12.31,0Z"/></svg>