<svg xmlns="http://www.w3.org/2000/svg" viewBox="0 0 18 18"><defs><style>.\31 b1294bb-b445-4ddb-ac24-cd5d14ce4664{fill:#21296a;}</style></defs><title>Asset 12logos-not-amros</title><g id="2f5d8c90-d186-4d84-ab84-94b6c891a508" data-name="Layer 2"><g id="0fa6a410-7df4-4271-ac2c-d9f6dcec4a7d" data-name="Layer 1"><path class="1b1294bb-b445-4ddb-ac24-cd5d14ce4664" d="M9,0a9,9,0,1,0,9,9A9,9,0,0,0,9,0Zm4.08,10.24a1.17,1.17,0,0,0-.65,1.22,3.3,3.3,0,0,1,0,.43,3.45,3.45,0,0,1-4.39,3.26A3.35,3.35,0,0,1,5.72,13a3.31,3.31,0,0,1-.16-1.49,1.26,1.26,0,0,0-.71-1.27A3.35,3.35,0,0,1,3,6.65,3.43,3.43,0,0,1,5.83,3.87a3.53,3.53,0,0,1,2.32.41,1.72,1.72,0,0,0,1.69,0,3.53,3.53,0,0,1,2.34-.41A3.43,3.43,0,0,1,15,6.66,3.35,3.35,0,0,1,13.08,10.24Z"/><ellipse class="1b1294bb-b445-4ddb-ac24-cd5d14ce4664" cx="11.82" cy="7.38" rx="1.42" ry="1.39"/><path class="1b1294bb-b445-4ddb-ac24-cd5d14ce4664" d="M7.61,7A1.42,1.42,0,0,1,4.76,7Z"/><path class="1b1294bb-b445-4ddb-ac24-cd5d14ce4664" d="M10.59,11.73c-1.42,1.38-3.15,0-3.22,0a.25.25,0,0,0-.35,0,.24.24,0,0,0,0,.34,3.8,3.8,0,0,0,2.09.75,2.5,2.5,0,0,0,1.8-.76.24.24,0,0,0,0-.34A.25.25,0,0,0,10.59,11.73Z"/><path class="1b1294bb-b445-4ddb-ac24-cd5d14ce4664" d="M9.52,10.29a.26.26,0,0,1,0-.38.28.28,0,0,1,.39,0,.26.26,0,0,1,0,.38A.28.28,0,0,1,9.52,10.29Z"/><ellipse class="1b1294bb-b445-4ddb-ac24-cd5d14ce4664" cx="8.56" cy="10.1" rx="0.27" ry="0.27"/></g></g></svg>